<?xml version="1.0" encoding="UTF-8"?>
<!DOCTYPE svg PUBLIC "-//W3C//DTD SVG 1.1//EN" "http://www.w3.org/Graphics/SVG/1.1/DTD/svg11.dtd">
<!-- Creator: CorelDRAW 2019 (64-Bit) -->
<svg xmlns="http://www.w3.org/2000/svg" xml:space="preserve" width="16.8864mm" height="4.1182mm" version="1.1" style="shape-rendering:geometricPrecision; text-rendering:geometricPrecision; image-rendering:optimizeQuality; fill-rule:evenodd; clip-rule:evenodd"
viewBox="0 0 295.43 72.05"
 xmlns:xlink="http://www.w3.org/1999/xlink">
 <defs>
  <style type="text/css">
   <![CDATA[
    .fil0 {fill:#FEFEFE}
    .fil1 {fill:#FEFEFE;fill-rule:nonzero}
   ]]>
  </style>
 </defs>
 <g id="Слой_x0020_1">
  <metadata id="CorelCorpID_0Corel-Layer"/>
  <g id="_2093718976560">
   <path class="fil0" d="M127.09 16.37l-7.2 0c-0.2,0.01 -0.61,0.1 -0.76,0.27l-3.66 3.66c-0.02,0.02 -0.35,0.27 -0.35,0.91l0 14.44c-0,0.18 0.08,0.41 0.39,0.41l2.97 0c0.29,-0 0.41,-0.21 0.4,-0.4l0 -6.77c0.01,-0.3 0.1,-0.8 1.02,-0.82l7.19 0 7.19 0c0.92,0.02 1.01,0.52 1.02,0.82l0 6.77c-0.01,0.19 0.11,0.4 0.4,0.4l2.97 0c0.31,0 0.39,-0.23 0.39,-0.41l0 -14.44c-0.01,-0.64 -0.33,-0.89 -0.35,-0.91l-3.66 -3.66c-0.16,-0.16 -0.57,-0.26 -0.76,-0.27l-7.2 0zm0 7.96l-7.21 0c-0.74,-0.02 -0.99,-0.48 -1.01,-0.99 0,-0.76 0,-1.58 0,-2.34 -0.02,-0.47 0.32,-0.89 1.01,-0.86l7.2 0 7.2 0c0.69,-0.03 1.03,0.38 1.01,0.86 0,0.76 0,1.59 0,2.34 -0.02,0.51 -0.27,0.97 -1.01,0.99l-7.2 0z"/>
   <path class="fil0" d="M253.39 19.91l-7.76 0c-0.52,0 -1.08,-0.28 -1.08,-0.95l0 -2.13c0.01,-0.21 -0.09,-0.45 -0.4,-0.47l-1.52 0 -1.85 0c-0.31,0.02 -0.4,0.26 -0.4,0.47l0 2.13c0,0.67 -0.56,0.95 -1.08,0.95l-7.76 0c-0.25,-0 -0.62,0.11 -0.88,0.38l-3.55 3.55c-0.29,0.32 -0.33,0.47 -0.35,0.89l0 3.07c0.01,0.43 0.2,0.69 0.36,0.82l3.63 3.63c0.12,0.11 0.36,0.3 0.79,0.29l7.82 0c0.72,0.03 1,0.55 1.02,0.93 0,0.83 0,1.37 0,2.2 -0.01,0.14 0.08,0.39 0.4,0.41l1.85 0 1.52 0c0.31,-0.02 0.41,-0.27 0.4,-0.41 0,-0.83 0,-1.37 0,-2.2 0.02,-0.39 0.3,-0.9 1.02,-0.93l7.82 0c0.43,0.01 0.67,-0.19 0.79,-0.29l3.63 -3.63c0.15,-0.13 0.34,-0.39 0.36,-0.82l0 -3.07c-0.02,-0.41 -0.06,-0.57 -0.35,-0.89l-3.55 -3.55c-0.26,-0.27 -0.62,-0.38 -0.88,-0.38zm-13.01 7.87l0 -3c0.01,-0.49 -0.27,-1.11 -1.08,-1.11 -2.58,0 -5.17,0 -7.75,0 -0.79,0.01 -1,0.53 -1.01,1.12l0 3.02c-0.02,0.52 0.52,0.94 1.01,0.94l7.83 0c0.74,-0.02 0.99,-0.36 1.01,-0.98zm4.17 0l0 -3c-0.01,-0.49 0.27,-1.11 1.08,-1.11 2.58,0 5.17,0 7.75,0 0.79,0.01 1,0.53 1.01,1.12l0 3.02c0.02,0.52 -0.52,0.94 -1.01,0.94l-7.83 0c-0.74,-0.02 -0.99,-0.36 -1.01,-0.98z"/>
   <path class="fil0" d="M283.45 16.37l-7.2 0c-0.2,0.01 -0.61,0.1 -0.76,0.27l-3.66 3.66c-0.02,0.02 -0.35,0.27 -0.35,0.91l0 14.44c-0,0.18 0.08,0.41 0.39,0.41l2.97 0c0.29,-0 0.41,-0.21 0.4,-0.4l0 -6.77c0.01,-0.3 0.1,-0.8 1.02,-0.82l7.19 0 7.19 0c0.92,0.02 1.01,0.52 1.02,0.82l0 6.77c-0.01,0.19 0.11,0.4 0.4,0.4l2.97 0c0.31,0 0.39,-0.23 0.39,-0.41l0 -14.44c-0.01,-0.64 -0.33,-0.89 -0.35,-0.91l-3.66 -3.66c-0.16,-0.16 -0.57,-0.26 -0.76,-0.27l-7.2 0zm0 7.96l-7.21 0c-0.74,-0.02 -0.99,-0.48 -1.01,-0.99 0,-0.76 0,-1.58 0,-2.34 -0.01,-0.47 0.32,-0.89 1.01,-0.86l7.2 0 7.2 0c0.69,-0.03 1.03,0.38 1.01,0.86 0,0.76 0,1.59 0,2.34 -0.02,0.51 -0.27,0.97 -1.01,0.99l-7.2 0z"/>
   <path class="fil0" d="M209.83 36.08c0.2,-0.01 0.61,-0.1 0.76,-0.27l3.66 -3.59c0.11,-0.11 0.34,-0.43 0.35,-0.91l0 -1.49c-0,-0.4 -0.03,-0.98 -0.35,-1.27l-3.69 -3.77c-0.24,-0.21 -0.47,-0.33 -0.73,-0.33l-7.2 0.01 -3.94 0.01 -3.26 0c-0.92,-0.02 -1.02,-0.51 -1.02,-0.82l0 -6.77c0.01,-0.19 -0.11,-0.4 -0.4,-0.4l-2.97 0c-0.31,0 -0.39,0.23 -0.39,0.42l0 18.77c0.01,0.33 0.21,0.41 0.37,0.41l18.82 0zm-7.21 -7.88l7.2 -0.01c0.74,0.02 0.99,0.48 1.01,0.99 0,0.76 0,1.58 0,2.34 0.02,0.47 -0.32,0.89 -1.01,0.86l-7.2 0.01 -7.2 0.01c-0.69,0.03 -1.03,-0.38 -1.01,-0.86 0,-0.76 0,-1.58 0,-2.34 0.02,-0.51 0.27,-0.97 1.01,-0.99l7.2 -0.01z"/>
   <path class="fil0" d="M156.45 21.04c-0.03,2.25 -0.06,4.49 -0.09,6.74 0,0.17 0.02,0.35 -0.15,0.52 -1.33,2.44 -2.67,4.88 -4,7.32 -0.09,0.15 -0.06,0.45 0.28,0.45l2.79 0c0.33,0 0.64,-0.21 0.78,-0.46 1.35,-2.46 2.69,-4.93 4.03,-7.4 0.1,-0.17 0.13,-0.33 0.13,-0.51l0 -6.53c0,-0.55 0.56,-1.04 1.18,-1.04 3.26,0 6.22,0.01 9.48,0.01 0.77,0 1.17,0.54 1.17,1.04l0 14.47c0,0.21 0.08,0.42 0.4,0.42l2.97 -0.01c0.4,0 0.5,-0.23 0.5,-0.42l0 -14.55c0,-0.19 -0.11,-0.47 -0.28,-0.64l-3.81 -3.81c-0.12,-0.12 -0.42,-0.29 -0.66,-0.29 -3.23,0 -6.47,0 -9.71,0 -0.32,0 -0.52,0.1 -0.7,0.28l-4.13 4.01c-0.1,0.1 -0.17,0.23 -0.17,0.37z"/>
   <path class="fil1" d="M121.58 52.97l-1.37 0c-0.22,0.93 -0.85,1.56 -1.85,1.56 -0.55,0 -1,-0.2 -1.33,-0.56 -0.46,-0.48 -0.55,-1.03 -0.55,-2.82 0,-1.79 0.09,-2.33 0.55,-2.82 0.33,-0.36 0.79,-0.56 1.33,-0.56 1,0 1.62,0.64 1.83,1.56l1.4 0c-0.32,-1.79 -1.56,-2.78 -3.22,-2.78 -0.99,0 -1.75,0.33 -2.34,0.91 -0.87,0.89 -0.91,1.79 -0.91,3.68 0,1.89 0.04,2.79 0.91,3.68 0.58,0.58 1.35,0.91 2.34,0.91 1.65,0 2.91,-0.99 3.22,-2.78zm7.73 -5.1l0 -1.23 -6.35 0 0 1.23 2.49 0 0 7.8 1.37 0 0 -7.8 2.49 0zm8.49 1.51c0,-1.57 -1.13,-2.74 -2.89,-2.74l-3.43 0 0 9.03 1.37 0 0 -3.57 2.06 0c1.76,0 2.89,-1.15 2.89,-2.73zm-1.37 0c0,0.95 -0.64,1.51 -1.6,1.51l-1.98 0 0 -3.02 1.98 0c0.96,0 1.6,0.55 1.6,1.51zm9.81 1.78c0,-1.89 -0.02,-2.79 -0.91,-3.68 -0.58,-0.58 -1.35,-0.91 -2.33,-0.91 -0.99,0 -1.75,0.33 -2.34,0.91 -0.89,0.89 -0.91,1.79 -0.91,3.68 0,1.89 0.03,2.79 0.91,3.68 0.58,0.58 1.35,0.91 2.34,0.91 0.99,0 1.75,-0.33 2.33,-0.91 0.89,-0.89 0.91,-1.79 0.91,-3.68zm-1.37 0c0,1.79 -0.08,2.34 -0.53,2.8 -0.34,0.36 -0.8,0.57 -1.34,0.57 -0.55,0 -1,-0.22 -1.35,-0.57 -0.44,-0.48 -0.53,-1.01 -0.53,-2.8 0,-1.79 0.09,-2.33 0.53,-2.82 0.34,-0.36 0.8,-0.56 1.35,-0.56 0.54,0 1,0.2 1.34,0.56 0.46,0.47 0.53,1.03 0.53,2.82zm10.67 4.52l0 -9.03 -1.26 0 -4.04 6.55 0 -6.55 -1.37 0 0 9.03 1.24 0 4.05 -6.56 0 6.56 1.37 0zm8.51 -7.8l0 -1.23 -6.35 0 0 1.23 2.49 0 0 7.8 1.37 0 0 -7.8 2.49 0zm7.96 7.8l0 -1.23 -4.42 0 0 -2.72 3.76 0 0 -1.22 -3.76 0 0 -2.64 4.42 0 0 -1.23 -5.79 0 0 9.03 5.79 0zm8.74 0l0 -9.03 -5.3 0 0 3.9c0,3.27 -0.72,3.91 -1.73,3.91l-0.24 0 0 1.23 0.57 0c1.81,0 2.73,-1.15 2.73,-4.95l0 -2.86 2.6 0 0 7.8 1.37 0zm9.31 -2.74c0,-1.63 -1.14,-2.74 -2.87,-2.74l-2.09 0 0 -3.55 -1.37 0 0 9.03 3.46 0c1.71,0 2.87,-1.12 2.87,-2.74zm-1.38 0c0,0.94 -0.6,1.51 -1.6,1.51l-1.98 0 0 -3.02 1.98 0c1,0 1.6,0.58 1.6,1.51zm10.05 2.74l0 -9.03 -1.38 0 0 3.87 -3.65 0 0 -3.87 -1.37 0 0 9.03 1.37 0 0 -3.95 3.65 0 0 3.95 1.38 0zm9.59 0l-3.3 -9.03 -1.1 0 -3.31 9.03 1.45 0 0.64 -1.81 3.57 0 0.63 1.81 1.43 0zm-2.44 -2.98l-2.8 0 1.42 -4.01 1.38 4.01zm7.09 -0.57l1.79 0 0 3.55 1.38 0 0 -9.03 -3.44 0c-1.71,0 -2.88,1.07 -2.88,2.74 0,1.22 0.67,2.12 1.74,2.49l-1.97 3.81 1.62 0 1.75 -3.55zm1.79 -1.23l-1.97 0c-0.99,0 -1.6,-0.6 -1.6,-1.52 0,-0.94 0.61,-1.51 1.6,-1.51l1.97 0 0 3.03zm11.23 4.78l0 -9.03 -1.37 0 0 9.03 1.37 0zm5.39 0l-3.79 -4.77 3.48 -4.26 -1.69 0 -3.37 4.3 3.64 4.73 1.74 0zm7.78 -4.52c0,-1.89 -0.03,-2.79 -0.91,-3.68 -0.58,-0.58 -1.35,-0.91 -2.34,-0.91 -0.99,0 -1.75,0.33 -2.33,0.91 -0.89,0.89 -0.91,1.79 -0.91,3.68 0,1.89 0.03,2.79 0.91,3.68 0.58,0.58 1.34,0.91 2.33,0.91 0.99,0 1.75,-0.33 2.34,-0.91 0.89,-0.89 0.91,-1.79 0.91,-3.68zm-1.37 0c0,1.79 -0.08,2.34 -0.53,2.8 -0.34,0.36 -0.8,0.57 -1.35,0.57 -0.55,0 -1,-0.22 -1.35,-0.57 -0.44,-0.48 -0.53,-1.01 -0.53,-2.8 0,-1.79 0.09,-2.33 0.53,-2.82 0.34,-0.36 0.8,-0.56 1.35,-0.56 0.55,0 1,0.2 1.35,0.56 0.46,0.47 0.53,1.03 0.53,2.82zm11.91 4.52l0 -9.03 -1.37 0 -2.6 5.62 -2.64 -5.62 -1.36 0 0 9.03 1.37 0 0 -6.04 2.12 4.4 1.01 0 2.08 -4.4 0 6.04 1.38 0zm9.35 0l0 -9.03 -6.39 0 0 9.03 1.37 0 0 -7.8 3.65 0 0 7.8 1.37 0zm9.61 0l-3.3 -9.03 -1.1 0 -3.31 9.03 1.45 0 0.64 -1.81 3.57 0 0.63 1.81 1.43 0zm-2.44 -2.98l-2.8 0 1.42 -4.01 1.38 4.01zm10.68 2.98l0 -9.03 -1.38 0 0 3.87 -3.65 0 0 -3.87 -1.37 0 0 9.03 1.37 0 0 -3.95 3.65 0 0 3.95 1.38 0zm9.62 0l0 -9.03 -1.26 0 -4.03 6.55 0 -6.55 -1.37 0 0 9.03 1.24 0 4.05 -6.56 0 6.56 1.37 0zm5.72 -3.55l1.79 0 0 3.55 1.38 0 0 -9.03 -3.44 0c-1.71,0 -2.88,1.07 -2.88,2.74 0,1.22 0.67,2.12 1.74,2.49l-1.97 3.81 1.62 0 1.75 -3.55zm1.79 -1.23l-1.97 0c-0.99,0 -1.6,-0.6 -1.6,-1.52 0,-0.94 0.61,-1.51 1.6,-1.51l1.97 0 0 3.03z"/>
   <path class="fil0" d="M28.65 16.9c0.09,0 0.29,0 0.38,-0.16 0.09,-0.16 0,-0.31 -0.03,-0.37l-0.03 -0.06 -4.88 -8.51 -3.67 -6.4 -0.04 -0.07c-0.02,-0.03 -0.04,-0.07 -0.06,-0.11 -0.07,-0.12 -0.17,-0.17 -0.28,-0.17 -0.17,-0 -0.26,0.13 -0.29,0.18 -0.02,0.03 -0.03,0.05 -0.05,0.08l-6.53 11.16c-0.75,1.28 -1.5,2.56 -2.25,3.85 -0.01,0.01 -0.01,0.02 -0.02,0.02 -0.03,0.05 -0.09,0.15 -0.09,0.28 0,0.05 0.01,0.09 0.03,0.13 0.01,0.02 0.03,0.04 0.05,0.06 0.13,0.12 0.28,0.1 0.35,0.1 0.01,-0 0.02,-0 0.03,-0 0.52,0 1.04,0 1.56,0l13.69 0c0.71,0 1.42,0 2.14,0z"/>
   <path class="fil0" d="M60.65 71.87c0.05,-0.09 0.05,-0.19 0,-0.28 -0.04,-0.08 -0.08,-0.16 -0.14,-0.26l-5.24 -9.14 -3.21 -5.6 -0.05 -0.09c-0.02,-0.03 -0.04,-0.07 -0.06,-0.1 -0.1,-0.15 -0.22,-0.19 -0.3,-0.19 -0.07,0 -0.19,0.02 -0.29,0.17 -0.03,0.05 -0.07,0.11 -0.1,0.16l-1.17 1.99c-0.72,1.22 -1.43,2.45 -2.15,3.68 -1,1.7 -1.99,3.4 -2.99,5.1l-1.95 3.33c-0.13,0.22 -0.26,0.44 -0.39,0.67l-0.18 0.3c-0.05,0.08 -0.05,0.18 0,0.25 0.02,0.03 0.04,0.06 0.07,0.08 0.14,0.1 0.26,0.09 0.32,0.09l0.01 0c2.15,0 4.3,0 6.45,-0l10.89 -0 0.03 0c0.06,0 0.12,0 0.19,-0.01 0.1,-0.01 0.19,-0.07 0.24,-0.16z"/>
   <path class="fil0" d="M9.44 52.26c0.13,-0.22 0.26,-0.44 0.38,-0.66l0.33 -0.56c0.91,-1.56 1.82,-3.12 2.74,-4.67l3.16 -5.4c0.71,-1.21 1.41,-2.41 2.12,-3.62 0,-0 0.01,-0.01 0.01,-0.02 0.04,-0.05 0.13,-0.18 0.07,-0.36 -0.03,-0.11 -0.13,-0.18 -0.24,-0.19l-0.09 -0c-0.07,-0 -0.14,-0 -0.21,-0 -0.28,-0 -0.57,0 -0.85,0l-14.04 0c-0.8,0 -1.6,0 -2.4,0 -0,0 -0.01,0 -0.01,0 -0.06,-0 -0.26,-0.02 -0.38,0.17 -0.05,0.08 -0.05,0.18 -0.01,0.26l0.12 0.2 8.52 14.86c0.04,0.06 0.08,0.13 0.12,0.2 0.06,0.09 0.15,0.14 0.25,0.14 0.1,0 0.19,-0.05 0.26,-0.13 0.05,-0.08 0.1,-0.16 0.14,-0.23z"/>
   <path class="fil0" d="M20 70.61c0.01,-0.02 0.03,-0.05 0.04,-0.07l1.26 -2.15c0.83,-1.42 1.66,-2.84 2.49,-4.26 0.84,-1.44 1.69,-2.88 2.53,-4.32l2.32 -3.96c0.03,-0.06 0.07,-0.12 0.1,-0.19 0.02,-0.03 0.04,-0.07 0.06,-0.11 0.04,-0.08 0.04,-0.17 -0,-0.25 -0.05,-0.08 -0.13,-0.13 -0.22,-0.13l-0.16 -0c-0.1,0 -0.18,-0 -0.27,-0l-11.53 0c-1.82,0 -3.63,0 -5.45,0 -0.02,0 -0.04,-0 -0.06,-0.01 -0.12,-0.01 -0.3,-0.03 -0.47,0.12 -0.05,0.05 -0.08,0.12 -0.08,0.2 0.01,0.12 0.05,0.22 0.09,0.28 0.02,0.03 0.04,0.06 0.05,0.09 0.01,0.02 0.03,0.04 0.04,0.06 2.22,3.88 4.45,7.76 6.67,11.64l1.8 3.13 0.05 0.1c0.04,0.07 0.13,0.23 0.32,0.23 0.2,-0 0.3,-0.18 0.36,-0.3 0.02,-0.03 0.04,-0.06 0.05,-0.09z"/>
   <path class="fil0" d="M21.68 0.63l3.92 6.85 4.62 8.06c0.03,0.06 0.07,0.12 0.11,0.18 0.06,0.09 0.15,0.14 0.25,0.14 0.1,0 0.19,-0.05 0.25,-0.13 0.05,-0.07 0.09,-0.13 0.13,-0.2l4.52 -7.73c1.33,-2.28 2.67,-4.55 4,-6.83 0.07,-0.12 0.13,-0.23 0.2,-0.36l0.1 -0.18c0.03,-0.06 0.04,-0.13 0.03,-0.19 -0.02,-0.07 -0.06,-0.12 -0.12,-0.15 -0.13,-0.07 -0.24,-0.07 -0.29,-0.07l-12.38 0c-1.67,0 -3.33,0 -5,0 -0.19,0 -0.35,0 -0.44,0.16 -0.09,0.16 -0.01,0.3 0.08,0.46z"/>
   <path class="fil0" d="M53.27 55.73c0.01,0.02 0.03,0.04 0.04,0.07l0.02 0.04 0.04 0.08 8.42 14.69c0.06,0.1 0.1,0.17 0.15,0.24 0.06,0.09 0.15,0.14 0.25,0.14 0.1,0 0.2,-0.05 0.26,-0.14 0.07,-0.09 0.12,-0.19 0.17,-0.27 0.62,-1.07 1.25,-2.14 1.88,-3.21l3.01 -5.15c1.26,-2.16 2.52,-4.31 3.78,-6.46 0,-0.01 0.01,-0.02 0.01,-0.02 0.04,-0.06 0.11,-0.16 0.11,-0.33 0,-0.07 -0.02,-0.13 -0.07,-0.18 -0.05,-0.05 -0.11,-0.08 -0.18,-0.08l-1.83 0c-2.42,-0 -4.84,-0 -7.26,-0 -1.75,0 -3.5,0 -5.25,0l-1.98 0c-0.12,0 -0.23,0 -0.35,0 -0.27,0 -0.54,0 -0.82,-0 -0.15,-0 -0.35,-0 -0.45,0.17 -0.09,0.17 -0,0.33 0.05,0.42z"/>
   <path class="fil0" d="M70.94 53.66c0.01,0 0.02,0 0.04,0 0.08,0.01 0.26,0.02 0.41,-0.12 0.09,-0.08 0.1,-0.21 0.05,-0.31l-8.64 -15.07c-0.03,-0.06 -0.08,-0.13 -0.13,-0.2 -0.06,-0.09 -0.15,-0.14 -0.25,-0.14 -0.1,-0 -0.19,0.05 -0.26,0.13 -0.04,0.06 -0.08,0.12 -0.12,0.18l-7.4 12.64c-0.45,0.77 -0.9,1.54 -1.35,2.31 -0,0.01 -0.01,0.01 -0.01,0.02 -0.04,0.05 -0.12,0.18 -0.07,0.36 0.01,0.02 0.01,0.04 0.02,0.06 0.04,0.08 0.13,0.13 0.22,0.13l0.11 0c0.08,0 0.16,0 0.24,0l14.79 0c0.79,0 1.57,0 2.35,-0z"/>
   <path class="fil0" d="M40.95 1.4l-1.5 2.56c-1.04,1.78 -2.09,3.57 -3.13,5.35 -0.78,1.32 -1.55,2.65 -2.33,3.97l-1.51 2.58c-0.11,0.19 -0.22,0.37 -0.31,0.55 -0.06,0.11 -0.06,0.23 -0.01,0.32 0.03,0.06 0.11,0.15 0.29,0.16 0.05,0 0.11,0 0.16,0l16.53 0c0.3,0 0.6,0 0.89,-0 0.18,0 0.26,-0.1 0.29,-0.15 0.03,-0.04 0.08,-0.17 -0,-0.32 -0.02,-0.04 -0.05,-0.09 -0.07,-0.13l-8.48 -14.8 -0.06 -0.11c-0.02,-0.03 -0.04,-0.07 -0.06,-0.1 -0.04,-0.07 -0.13,-0.21 -0.3,-0.21 -0.17,-0 -0.26,0.14 -0.31,0.22 -0.03,0.04 -0.05,0.08 -0.08,0.12z"/>
   <path class="fil0" d="M15.28 35.28c0.83,0 1.65,0 2.48,-0 0.01,0 0.03,0 0.04,0 0.09,0 0.2,0.01 0.35,-0.05 0.07,-0.03 0.12,-0.08 0.15,-0.15 0.02,-0.07 0.02,-0.15 -0.02,-0.21l-8.62 -15.03c-0.04,-0.08 -0.09,-0.16 -0.15,-0.25 -0.06,-0.09 -0.15,-0.14 -0.26,-0.14 -0.1,0 -0.2,0.05 -0.26,0.14 -0.05,0.08 -0.11,0.16 -0.17,0.27 -0.22,0.37 -0.44,0.74 -0.65,1.12l-4.09 6.99c-0.54,0.91 -1.07,1.82 -1.6,2.74 -0.43,0.73 -0.85,1.45 -1.28,2.18l-1.03 1.76c-0.03,0.06 -0.07,0.12 -0.1,0.19 -0.04,0.09 -0.04,0.2 0.01,0.29 0.05,0.08 0.13,0.14 0.23,0.15 0.07,0.01 0.13,0.01 0.19,0.01l0.01 0c2.59,-0 5.19,-0 7.78,-0l6.99 -0z"/>
   <path class="fil0" d="M39.38 71.66l-8.65 -15.08 -0.05 -0.09c-0.01,-0.03 -0.03,-0.05 -0.05,-0.08 -0.03,-0.05 -0.12,-0.2 -0.3,-0.19 -0.17,0 -0.26,0.15 -0.29,0.19 -0.22,0.36 -0.43,0.72 -0.64,1.08l-1.9 3.25c-0.84,1.43 -1.67,2.86 -2.51,4.28 -0.74,1.26 -1.48,2.52 -2.22,3.79l-1.54 2.62c-0.09,0.16 -0.17,0.3 -0.08,0.46 0.09,0.16 0.25,0.16 0.45,0.16 0.01,0 0.02,0 0.04,0l3.14 0c1.88,0 3.76,0 5.64,0 2.79,0 5.59,0 8.38,0 0.07,0 0.13,-0 0.22,-0.01l0.14 -0c0.09,0 0.17,-0.05 0.22,-0.13 0.04,-0.08 0.04,-0.17 -0,-0.25z"/>
   <path class="fil0" d="M28.53 53.66c0.11,-0 0.21,-0.06 0.26,-0.15 0.05,-0.09 0.06,-0.2 0.01,-0.29 -0.03,-0.06 -0.06,-0.12 -0.1,-0.19l-0.04 -0.06 -5.02 -8.76 -3.46 -6.04 -0.06 -0.1c-0.05,-0.08 -0.14,-0.24 -0.32,-0.24 -0.19,0 -0.29,0.18 -0.36,0.3 -0.01,0.01 -0.01,0.02 -0.02,0.03l-7.7 13.15c-0.34,0.58 -0.68,1.16 -1.02,1.75 -0,0.01 -0.01,0.01 -0.01,0.02 -0.04,0.06 -0.13,0.19 -0.09,0.37 0.01,0.03 0.02,0.05 0.03,0.07 0.03,0.05 0.08,0.09 0.13,0.11 0.11,0.04 0.21,0.04 0.3,0.03 0.02,-0 0.03,-0 0.05,-0l16.92 0c0.17,0 0.33,-0 0.5,-0.01z"/>
   <path class="fil0" d="M50.11 55.4c-0.01,-0.07 -0.05,-0.14 -0.12,-0.17 -0.13,-0.08 -0.26,-0.08 -0.34,-0.07 -0.01,0 -0.03,0 -0.04,0 -1.55,0 -3.1,0 -4.66,0l-12.35 0c-0.14,0 -0.29,0 -0.44,0.01 -0.11,0 -0.21,0.06 -0.26,0.14 -0.05,0.09 -0.06,0.2 -0.01,0.29 0.04,0.09 0.09,0.17 0.14,0.26 2.82,4.92 5.64,9.84 8.46,14.76l0.05 0.08 0.05 0.09c0.04,0.07 0.12,0.22 0.3,0.22 0.19,0 0.29,-0.17 0.33,-0.25 0.13,-0.23 0.26,-0.45 0.39,-0.68 0.06,-0.09 0.11,-0.19 0.17,-0.28l4.05 -6.92c0.76,-1.29 1.52,-2.59 2.27,-3.88 0.63,-1.07 1.26,-2.14 1.88,-3.22 0.01,-0.01 0.01,-0.02 0.02,-0.03 0.04,-0.06 0.12,-0.17 0.1,-0.34z"/>
   <path class="fil0" d="M20.68 33.07l7.67 -13.09c0.2,-0.34 0.4,-0.68 0.59,-1.02l0.01 -0.01c0.1,-0.15 0.11,-0.29 0.03,-0.44 -0.05,-0.08 -0.13,-0.13 -0.22,-0.13 -5.85,-0 -11.7,0 -17.56,0l-0.01 0c-0.05,-0 -0.19,-0.01 -0.33,0.13 -0.09,0.08 -0.1,0.21 -0.05,0.31l8.63 15.06c0.02,0.04 0.05,0.08 0.07,0.13 0.03,0.04 0.05,0.08 0.08,0.1 0.06,0.07 0.15,0.11 0.24,0.1 0.09,-0 0.17,-0.05 0.22,-0.12 0.06,-0.08 0.11,-0.15 0.15,-0.23 0.16,-0.27 0.31,-0.53 0.47,-0.8z"/>
   <path class="fil0" d="M56.4 18.38c-0.85,0 -1.71,0 -2.56,0 -0.01,0 -0.01,0 -0.02,0 -0.06,-0.01 -0.23,-0.02 -0.36,0.13 -0.06,0.07 -0.08,0.17 -0.04,0.25l0.01 0.02c0.01,0.03 0.02,0.07 0.05,0.11 2.9,5.06 5.8,10.11 8.7,15.16 0.05,0.08 0.12,0.11 0.16,0.13 0.09,0.04 0.19,0.03 0.27,-0.02 0.1,-0.08 0.15,-0.17 0.19,-0.24 0.01,-0.02 0.02,-0.03 0.02,-0.05 0.82,-1.39 1.64,-2.79 2.45,-4.18 2.09,-3.56 4.17,-7.12 6.26,-10.69l0.01 -0.01c0.03,-0.05 0.07,-0.12 0.1,-0.18 0.04,-0.09 0.04,-0.19 -0.01,-0.28 -0.05,-0.09 -0.15,-0.15 -0.25,-0.15 -0.08,-0.01 -0.15,-0.01 -0.22,-0.01l-8.56 -0c-2.06,0 -4.12,0 -6.18,0z"/>
   <path class="fil0" d="M42.92 0.48c0.04,0.08 0.09,0.17 0.13,0.24l0.22 -0.13 -0.22 0.14 2.1 3.67 6.31 11.01 0.06 0.11c0.02,0.04 0.04,0.07 0.06,0.11 0.08,0.13 0.18,0.19 0.3,0.19 0.08,0 0.2,-0.03 0.29,-0.18 0.05,-0.08 0.1,-0.17 0.15,-0.26l1.12 -1.92c1.12,-1.92 2.24,-3.83 3.36,-5.74 1.2,-2.04 2.39,-4.08 3.58,-6.12l0.54 -0.93c0.04,-0.07 0.09,-0.15 0.12,-0.22 0.05,-0.1 0.05,-0.21 -0,-0.29 -0.05,-0.08 -0.13,-0.13 -0.22,-0.15 -0.06,-0.01 -0.11,-0.01 -0.15,-0.01l-0.21 0c-0.47,-0 -0.94,-0 -1.42,-0l-2.63 0c-1.63,0 -3.27,0 -4.9,0 -1.74,0 -3.47,0 -5.21,0l-2.71 0c-0.14,0 -0.27,-0 -0.41,0 -0.13,0 -0.23,0.06 -0.29,0.16 -0.06,0.1 -0.06,0.21 0,0.32z"/>
   <path class="fil0" d="M64.05 36.86c-0.08,0.06 -0.12,0.17 -0.1,0.27 0.02,0.08 0.06,0.15 0.09,0.2 0.01,0.02 0.03,0.04 0.04,0.06 0.01,0.02 0.02,0.03 0.03,0.05 0.31,0.55 0.62,1.09 0.94,1.63l7.52 13.13 0.03 0.06c0.03,0.06 0.07,0.12 0.12,0.19 0.06,0.08 0.15,0.13 0.25,0.13 0.1,-0 0.2,-0.05 0.26,-0.14 0.03,-0.05 0.06,-0.1 0.09,-0.15 0.24,-0.42 0.49,-0.84 0.74,-1.26l5.99 -10.23c0.67,-1.15 1.35,-2.3 2.02,-3.45 0.01,-0.01 0.01,-0.02 0.02,-0.03 0.04,-0.06 0.12,-0.18 0.09,-0.34 -0.01,-0.06 -0.04,-0.11 -0.08,-0.15 -0.11,-0.09 -0.23,-0.09 -0.29,-0.09l-0.01 0c-5.85,0 -11.7,0.01 -17.55,0.01 -0.11,0 -0.18,0.06 -0.2,0.09z"/>
   <path class="fil0" d="M82.14 40.2c-0.93,1.58 -1.85,3.16 -2.77,4.74 -0.85,1.45 -1.7,2.89 -2.54,4.34 -0.73,1.24 -1.45,2.48 -2.18,3.72 -0.01,0.01 -0.01,0.02 -0.02,0.04 -0.04,0.07 -0.1,0.17 -0.13,0.31 -0.01,0.06 0,0.12 0.03,0.17 0.01,0.01 0.01,0.02 0.02,0.03 0.05,0.06 0.12,0.09 0.19,0.1l0.07 0c0.04,0 0.08,0 0.11,0l17.27 -0 0.09 0c0.05,0 0.1,0 0.16,-0 0.12,-0.01 0.22,-0.06 0.27,-0.15 0.03,-0.06 0.08,-0.17 0,-0.32 -0.03,-0.06 -0.06,-0.12 -0.1,-0.18l-4.24 -7.41 -4.25 -7.41c-0.12,-0.2 -0.2,-0.35 -0.39,-0.35 -0.19,0 -0.27,0.14 -0.39,0.34l-1.18 2.02z"/>
   <path class="fil0" d="M62.36 1.23c-2.74,4.67 -5.52,9.42 -8.21,14.02l-0.71 1.21c-0.05,0.08 -0.05,0.18 -0,0.26 0.01,0.02 0.03,0.05 0.05,0.06 0.13,0.11 0.25,0.11 0.31,0.11 0.1,0 0.19,0 0.29,0l1.93 0c1.49,0 2.97,0 4.46,0 0.79,0 1.59,0 2.38,0 0.87,0 1.74,-0 2.6,0 1.09,0 2.18,0 3.27,0l2.42 0c0.08,0 0.16,-0 0.23,-0.01 0.11,-0.01 0.2,-0.06 0.25,-0.15 0.05,-0.09 0.05,-0.19 0.01,-0.29 -0.04,-0.09 -0.09,-0.18 -0.15,-0.28l-7.81 -13.63c-0.22,-0.38 -0.43,-0.76 -0.65,-1.14 -0.01,-0.01 -0.02,-0.03 -0.02,-0.04 -0.01,-0.02 -0.02,-0.05 -0.03,-0.07 -0.03,-0.05 -0.08,-0.13 -0.18,-0.2 -0.09,-0.06 -0.21,-0.05 -0.3,0.01 -0.03,0.02 -0.08,0.05 -0.12,0.12z"/>
   <path class="fil0" d="M72.36 20.53l-6.89 11.77c-0.46,0.79 -0.92,1.57 -1.38,2.36 -0.01,0.01 -0.01,0.02 -0.02,0.03 -0.04,0.06 -0.1,0.15 -0.11,0.27 -0.01,0.05 0.01,0.11 0.03,0.16 0.02,0.04 0.06,0.08 0.11,0.1 0.01,0 0.01,0.01 0.01,0.01 0.03,0.02 0.08,0.05 0.16,0.05 5.85,0 11.7,0 17.55,0 0.04,0 0.08,-0.01 0.12,-0.01 0.01,-0 0.03,-0.01 0.05,-0.01 0.07,-0.01 0.13,-0.05 0.17,-0.11 0.04,-0.06 0.05,-0.13 0.04,-0.2 -0.02,-0.12 -0.07,-0.21 -0.11,-0.27 -0.01,-0.02 -0.03,-0.05 -0.04,-0.07 -0.01,-0.02 -0.02,-0.03 -0.03,-0.05 -2.06,-3.6 -4.12,-7.19 -6.18,-10.78l-2.26 -3.95 -0.06 -0.1c-0.02,-0.03 -0.04,-0.06 -0.06,-0.1 -0.09,-0.15 -0.21,-0.18 -0.29,-0.18 -0.06,0 -0.19,0.03 -0.28,0.18 -0.18,0.3 -0.35,0.6 -0.53,0.9z"/>
   <path class="fil0" d="M74.57 55.25c-0.08,0.06 -0.12,0.17 -0.1,0.27 0.02,0.08 0.06,0.15 0.09,0.2 0.01,0.02 0.02,0.04 0.04,0.06 0.01,0.02 0.02,0.03 0.03,0.05 0.31,0.55 0.62,1.09 0.94,1.64l7.53 13.12 0.03 0.06c0.03,0.06 0.07,0.12 0.12,0.19 0.06,0.08 0.15,0.13 0.25,0.13 0.1,0 0.2,-0.05 0.26,-0.14 0.03,-0.05 0.06,-0.1 0.09,-0.15 0.24,-0.42 0.49,-0.84 0.73,-1.26l5.99 -10.23c0.67,-1.15 1.35,-2.3 2.02,-3.45 0.01,-0.01 0.01,-0.02 0.02,-0.02 0.04,-0.06 0.12,-0.18 0.09,-0.34 -0.01,-0.06 -0.04,-0.11 -0.08,-0.15 -0.11,-0.09 -0.23,-0.09 -0.29,-0.09l-0.01 0c-5.85,0 -11.7,0.01 -17.55,0.01 -0.11,0 -0.18,0.06 -0.2,0.09z"/>
   <path class="fil0" d="M92.67 58.59c-0.93,1.58 -1.85,3.16 -2.78,4.74 -0.85,1.45 -1.69,2.89 -2.54,4.34 -0.73,1.24 -1.45,2.48 -2.18,3.72 -0.01,0.01 -0.01,0.02 -0.02,0.04 -0.04,0.07 -0.1,0.17 -0.13,0.31 -0.01,0.06 0,0.12 0.03,0.17 0.01,0.01 0.01,0.02 0.02,0.03 0.05,0.06 0.12,0.09 0.19,0.09l0.06 0c0.04,0 0.08,0.01 0.11,0.01l17.27 -0 0.08 0c0.05,0 0.1,0 0.16,-0 0.12,-0.01 0.22,-0.06 0.27,-0.16 0.03,-0.06 0.08,-0.17 -0,-0.32 -0.03,-0.06 -0.06,-0.12 -0.1,-0.18l-4.24 -7.4 -4.25 -7.41c-0.12,-0.2 -0.2,-0.35 -0.39,-0.35 -0.19,-0 -0.27,0.14 -0.39,0.34l-1.18 2.02z"/>
  </g>
 </g>
</svg>
